<svg width="23" height="22" viewBox="0 0 23 22" fill="none" xmlns="http://www.w3.org/2000/svg">
<path d="M15.5374 0H6.37076C5.4541 0 4.72076 0.733333 4.72076 1.65V20.5333C4.72076 21.2667 5.4541 22 6.37076 22H15.7208C16.6374 22 17.3708 21.2667 17.3708 20.35V1.65C17.1874 0.733333 16.4541 0 15.5374 0ZM5.4541 2.93333H16.4541V16.8667H5.4541V2.93333ZM6.37076 0.733333H15.7208C16.0874 0.733333 16.4541 1.1 16.4541 1.65V2.2H5.4541V1.65C5.4541 1.1 5.82076 0.733333 6.37076 0.733333ZM15.5374 21.2667H6.37076C5.82076 21.2667 5.4541 20.9 5.4541 20.35V17.6H16.4541V20.35C16.4541 20.9 16.0874 21.2667 15.5374 21.2667Z" fill="white"/>
<path d="M10.9543 17.9668C10.2209 17.9668 9.48761 18.7001 9.48761 19.4335C9.48761 20.1668 10.2209 20.9001 10.9543 20.9001C11.6876 20.9001 12.4209 20.1668 12.4209 19.4335C12.4209 18.7001 11.8709 17.9668 10.9543 17.9668ZM10.9543 20.1668C10.5876 20.1668 10.2209 19.8001 10.2209 19.4335C10.2209 19.0668 10.5876 18.7001 10.9543 18.7001C11.3209 18.7001 11.6876 19.0668 11.6876 19.4335C11.6876 19.9835 11.3209 20.1668 10.9543 20.1668Z" fill="white"/>
<path d="M9.48745 1.83331H10.9541C11.1375 1.83331 11.3208 1.64998 11.3208 1.46664C11.3208 1.28331 11.1375 1.09998 10.9541 1.09998H9.48745C9.30412 1.09998 9.12079 1.28331 9.12079 1.46664C9.12079 1.64998 9.30412 1.83331 9.48745 1.83331Z" fill="white"/>
<path d="M12.0542 1.83331H12.4208C12.6042 1.83331 12.7875 1.64998 12.7875 1.46664C12.7875 1.28331 12.6042 1.09998 12.4208 1.09998H12.0542C11.8708 1.09998 11.6875 1.28331 11.6875 1.46664C11.6875 1.64998 11.8708 1.83331 12.0542 1.83331Z" fill="white"/>
<path d="M20.8542 1.64995C20.6709 1.46662 20.4875 1.46662 20.3042 1.64995C20.1209 1.83328 20.1209 2.01662 20.3042 2.19995C21.7709 3.66662 21.7709 5.86662 20.3042 7.14995C20.1209 7.33328 20.1209 7.51662 20.3042 7.69995L20.4875 7.88328C20.4875 7.88328 20.6709 7.88328 20.6709 7.69995C22.5042 6.04995 22.5042 3.29995 20.8542 1.64995Z" fill="white"/>
<path d="M19.2041 2.56658C19.0208 2.38324 18.8374 2.38324 18.6541 2.56658C18.4708 2.74991 18.4708 2.93324 18.6541 3.11658C19.0208 3.48324 19.3874 4.21658 19.3874 4.76658C19.3874 5.49991 19.2041 6.04991 18.6541 6.41658C18.4708 6.59991 18.4708 6.78324 18.6541 6.96658L18.8374 7.14991C19.0208 7.14991 19.0208 7.14991 19.0208 6.96658C19.7541 6.41658 20.1208 5.49991 20.1208 4.76658C20.1208 3.84991 19.7541 3.11658 19.2041 2.56658Z" fill="white"/>
<path d="M1.7875 2.19995C1.7875 2.01662 1.7875 1.83328 1.7875 1.64995C1.60417 1.46662 1.42083 1.46662 1.2375 1.64995C-0.4125 3.29995 -0.4125 6.04995 1.2375 7.69995L1.42083 7.88328C1.60417 7.88328 1.60417 7.88328 1.60417 7.69995C1.7875 7.51662 1.7875 7.33328 1.7875 7.14995C0.320833 5.86662 0.320833 3.66662 1.7875 2.19995Z" fill="white"/>
<path d="M3.25414 2.38335C3.07081 2.20002 2.88748 2.20002 2.70414 2.38335C2.15414 2.93335 1.78748 3.85002 1.78748 4.58335C1.78748 5.50002 2.15414 6.23335 2.70414 6.78335L2.88748 6.96668C3.07081 6.96668 3.07081 6.96668 3.07081 6.78335C3.25414 6.60002 3.25414 6.41668 3.07081 6.23335C2.88748 5.86668 2.52081 5.31668 2.52081 4.58335C2.52081 3.85002 2.70414 3.30002 3.25414 2.93335C3.43748 2.75002 3.43748 2.56668 3.25414 2.38335Z" fill="white"/>
</svg>
