<svg width="24" height="18" viewBox="0 0 24 18" fill="none" xmlns="http://www.w3.org/2000/svg">
<path d="M21.6912 17.1294H1.90882C0.867647 17.1294 0 16.2618 0 15.2206V2.3794C0 1.33823 0.867647 0.470581 1.90882 0.470581H21.6912C22.7324 0.470581 23.6 1.33823 23.6 2.3794V15.2206C23.4265 16.2618 22.7324 17.1294 21.6912 17.1294ZM1.90882 1.1647C1.21471 1.1647 0.694118 1.68529 0.694118 2.3794V15.2206C0.694118 15.9147 1.21471 16.4353 1.90882 16.4353H21.6912C22.3853 16.4353 22.9059 15.9147 22.9059 15.2206V2.3794C22.9059 1.68529 22.3853 1.1647 21.6912 1.1647H1.90882V1.1647Z" fill="white"/>
<path d="M11.7999 10.7087C11.2793 10.7087 10.7587 10.5352 10.4116 10.1881L0.69399 1.68516C0.52046 1.51163 0.52046 1.3381 0.69399 1.16457C0.867519 0.991041 1.04105 0.991041 1.21458 1.16457L10.9322 9.66751C11.4528 10.0146 12.3205 10.0146 12.6675 9.66751L22.3852 1.16457C22.5587 0.991041 22.7322 0.991041 22.9058 1.16457C23.0793 1.3381 23.0793 1.51163 22.9058 1.68516L13.1881 10.1881C12.841 10.5352 12.3205 10.7087 11.7999 10.7087Z" fill="white"/>
</svg>
