<svg width="23" height="23" viewBox="0 0 23 23" fill="none" xmlns="http://www.w3.org/2000/svg">
<path d="M11.7347 22.6806C18.7755 22.2015 23.6258 16.7709 22.3741 9.58341C21.2789 3.67369 15.6462 -0.31937 10.0136 0.479241C4.22448 1.27785 -0.156477 6.86813 0.469373 12.7779C1.09522 18.2084 4.38094 20.6042 7.0408 21.882C7.66665 22.2015 8.44896 22.5209 8.76189 22.5209C9.07482 22.5209 8.91835 20.764 8.91835 20.1251C7.19726 20.4445 6.57141 19.6459 6.10203 19.3265C5.63264 18.8473 5.47618 18.3681 5.00679 17.5695C4.5374 16.7709 3.75509 17.0904 3.75509 16.6112C3.59862 16.132 5.47618 16.2917 6.72788 17.889C7.66665 19.007 8.60543 18.6876 9.07482 18.3681C9.07482 18.2084 9.07482 17.889 9.23128 17.7292C9.38774 17.4098 9.70067 17.2501 9.5442 17.0904C9.5442 16.9306 7.19726 17.0904 5.7891 15.1737C4.85033 13.4167 4.85033 11.8195 5.31971 10.5417C5.47618 9.74313 5.94556 9.10424 6.25849 8.7848C6.10203 8.62508 5.94556 8.14591 5.94556 7.50702C5.94556 6.86813 6.10203 6.38896 6.25849 6.22924C6.57141 6.22924 7.19726 6.22924 7.82311 6.54869C8.44897 6.70841 8.91835 7.02785 9.23128 7.3473C9.85713 7.18757 10.6394 7.02785 11.5782 6.86813C12.517 6.86813 13.4558 7.02785 14.0816 7.18758C14.3945 7.02785 14.8639 6.54869 15.4898 6.38896C15.9592 6.22924 16.4286 6.06952 16.7415 6.06952C16.8979 6.38896 17.2109 6.86813 17.2109 7.50702C17.2109 8.14591 17.0544 8.62508 16.8979 8.7848C17.2109 9.10424 17.6803 9.90285 17.9932 10.8612C18.1496 11.1806 18.4626 13.257 17.2109 15.014C15.8027 16.7709 13.6122 16.6112 13.4558 16.7709C13.2993 17.0904 13.9252 17.4098 14.0816 18.3681C14.3945 19.3265 14.2381 21.2431 14.2381 21.2431" stroke="white" stroke-miterlimit="10" stroke-linecap="round" stroke-linejoin="round"/>
</svg>
