<svg width="17" height="17" viewBox="0 0 17 17" fill="none" xmlns="http://www.w3.org/2000/svg">
<path d="M6.24088 17C5.89782 16.8758 5.78833 16.6346 5.78833 16.2691C5.80293 12.8852 5.79563 9.50129 5.79563 6.11737C5.79563 5.53999 5.91972 5.42305 6.50366 5.42305C7.31388 5.42305 8.1241 5.42305 8.94161 5.42305C9.52555 5.42305 9.63504 5.52537 9.65694 6.11737C9.65694 6.16123 9.67154 6.20508 9.67884 6.3074C10.2847 5.75925 10.9416 5.40843 11.708 5.25495C12.8029 5.03569 13.854 5.13801 14.8613 5.61307C15.9927 6.14661 16.5183 7.13328 16.7664 8.28805C16.8832 8.8289 16.927 9.38436 17 9.93982C17 12.2932 17 14.6466 17 17C15.8102 17 14.6277 17 13.438 17C13.0584 16.905 12.9781 16.6419 12.9854 16.2911C13 15.2532 12.9927 14.2081 12.9854 13.1629C12.9781 12.1836 12.9781 11.2042 12.927 10.2249C12.9051 9.72786 12.781 9.22356 12.3139 8.93122C11.4453 8.39037 10.1898 8.88006 9.94891 9.86673C9.83942 10.2979 9.81023 10.7511 9.80293 11.1969C9.78833 12.8779 9.78833 14.5662 9.80293 16.2472C9.80293 16.6053 9.70804 16.8538 9.37227 17C8.32118 17 7.28468 17 6.24088 17ZM9.23358 16.408C9.23358 16.2545 9.23358 16.123 9.23358 15.9914C9.23358 14.5004 9.21899 13.0095 9.24088 11.5185C9.24818 10.9776 9.28468 10.4222 9.37957 9.88865C9.57665 8.79966 10.3942 8.19304 11.5475 8.20766C12.5912 8.22227 13.2555 8.82159 13.4307 9.95443C13.4891 10.3272 13.5037 10.6999 13.5037 11.0727C13.511 12.7244 13.5037 14.3689 13.5037 16.0206C13.5037 16.1449 13.5037 16.2764 13.5037 16.3934C14.511 16.3934 15.4599 16.3934 16.4161 16.3934C16.4234 16.2911 16.4307 16.218 16.4307 16.1449C16.4234 14.0327 16.4453 11.9278 16.4015 9.81557C16.3869 9.1724 16.2409 8.52193 16.0876 7.88608C15.9343 7.26484 15.5985 6.72399 15.0657 6.34394C13.6715 5.36458 10.9197 5.34265 9.69344 7.10405C9.61315 7.21368 9.45256 7.26484 9.32847 7.34523C9.25548 7.20637 9.13869 7.07481 9.1241 6.92864C9.0949 6.61436 9.1168 6.28547 9.1168 5.94927C8.28468 5.94927 7.52556 5.96389 6.76643 5.94197C6.41607 5.92735 6.32118 6.02967 6.32118 6.38049C6.33577 9.59631 6.32848 12.8048 6.32848 16.0206C6.32848 16.1376 6.33578 16.2545 6.34307 16.3934C7.29928 16.408 8.24088 16.408 9.23358 16.408Z" fill="white"/>
<path d="M0.715311 17.0001C0.372245 16.8758 0.262756 16.6346 0.262756 16.2692C0.270056 12.8853 0.270056 9.50136 0.270056 6.12474C0.270056 5.54736 0.394143 5.43042 0.978085 5.43042C1.8613 5.43042 2.74451 5.43042 3.62772 5.43042C4.09487 5.43042 4.26276 5.59852 4.26276 6.06627C4.26276 9.48674 4.26276 12.9072 4.27006 16.3204C4.27006 16.6566 4.13137 16.8685 3.8467 17.0001C2.8029 17.0001 1.75911 17.0001 0.715311 17.0001ZM3.68611 16.4154C3.68611 12.9145 3.68611 9.4575 3.68611 5.99319C2.71531 5.99319 1.76641 5.99319 0.817501 5.99319C0.817501 9.48674 0.817501 12.9437 0.817501 16.4154C1.781 16.4154 2.72261 16.4154 3.68611 16.4154Z" fill="white"/>
<path d="M2.23358 4.546C1.05109 4.53869 0 3.47162 0 2.273C0 1.05245 1.05109 0 2.27007 0C3.49635 0 4.53285 1.03783 4.54015 2.273C4.54745 3.50817 3.48175 4.55331 2.23358 4.546ZM2.24088 3.99785C3.27737 3.99785 3.9927 3.30352 3.9927 2.28762C3.9927 1.2644 3.28467 0.548151 2.26277 0.548151C1.26277 0.548151 0.554745 1.25709 0.547445 2.25838C0.547445 3.26698 1.25547 3.99054 2.24088 3.99785Z" fill="white"/>
</svg>
