<svg width="148" height="129" viewBox="0 0 148 129" fill="none" xmlns="http://www.w3.org/2000/svg">
<g clip-path="url(#clip0)">
<path d="M7.29429 125.417C7.29429 124.574 7.08286 123.836 6.44857 123.203L2.22 118.882C1.48 118.145 1.05714 117.091 1.16286 116.037C1.26857 114.983 1.79714 114.034 2.64286 113.402C4.33429 112.137 6.66 112.453 7.92857 114.14C8.03429 114.245 8.03429 114.35 8.14 114.456C8.24572 114.667 8.14 114.983 7.92857 115.194C7.71714 115.299 7.4 115.194 7.18857 114.983C6.76572 114.35 6.13143 113.824 5.39143 113.718C3.91143 113.402 2.53714 114.35 2.22 115.826C2.00857 116.669 2.32572 117.618 2.96 118.25L7.18857 122.676C7.92857 123.414 8.35143 124.574 8.24572 125.627C8.14 126.681 7.61143 127.735 6.76572 128.368C5.92 129 4.75714 129.316 3.7 129.105C2.64286 128.895 1.69143 128.262 1.05714 127.314C0.95143 127.103 0.95143 126.787 1.26857 126.681C1.48 126.576 1.79714 126.681 2.00857 126.892C2.43143 127.63 3.06572 128.051 3.91143 128.262C4.75714 128.473 5.49714 128.262 6.13143 127.735C6.76572 126.892 7.18857 126.26 7.29429 125.417Z" fill="white"/>
<path d="M25.5829 128.368C25.6886 128.684 25.4771 128.895 25.2657 129C24.9486 129.105 24.7371 128.895 24.6314 128.684C24.6314 128.684 24.2086 127.314 23.68 125.311H17.9714C17.4429 127.208 17.02 128.684 17.02 128.684C16.9143 129 16.7029 129.105 16.3857 129C16.0686 128.895 15.9629 128.684 15.9629 128.368L20.1914 112.98C20.2971 112.77 20.5086 112.664 20.72 112.664C20.9314 112.664 21.1429 112.77 21.2486 112.98L25.5829 128.368ZM23.3629 124.257C22.4114 120.885 21.2486 116.564 20.8257 114.983C20.4029 116.564 19.24 120.885 18.2886 124.257H23.3629Z" fill="white"/>
<path d="M34.04 128.473V113.086C34.04 112.875 34.2514 112.664 34.4629 112.559C34.6743 112.559 34.8857 112.664 34.9914 112.875L38.7971 120.885C39.5371 119.304 42.6029 112.875 42.6029 112.875C42.7086 112.664 42.92 112.559 43.1314 112.559C43.3429 112.664 43.5543 112.875 43.5543 113.086V128.473C43.5543 128.789 43.3429 129 43.0257 129C42.7086 129 42.4971 128.789 42.4971 128.578V115.404C41.3343 117.828 39.22 122.36 39.22 122.36C39.1143 122.571 39.0086 122.676 38.7971 122.676C38.5857 122.676 38.3743 122.571 38.2686 122.36C38.2686 122.36 36.1543 117.828 34.9914 115.404V128.578C34.9914 128.895 34.78 129.105 34.4629 129.105C34.3571 129 34.04 128.789 34.04 128.473C34.04 128.578 34.04 128.473 34.04 128.473Z" fill="white"/>
<path d="M53.28 128.473V113.086C53.28 112.77 53.4914 112.559 53.7029 112.559C53.9143 112.559 54.1257 112.664 54.2314 112.875L58.0371 120.885C58.7771 119.304 61.8429 112.875 61.8429 112.875C61.9486 112.664 62.16 112.559 62.4771 112.559C62.6886 112.664 62.9 112.875 62.9 113.086V128.473C62.9 128.789 62.6886 129 62.3714 129C62.0543 129 61.8429 128.789 61.8429 128.578V115.404C60.68 117.828 58.5657 122.36 58.5657 122.36C58.46 122.571 58.3543 122.676 58.1429 122.676C57.9314 122.676 57.72 122.571 57.6143 122.36C57.6143 122.36 55.5 117.828 54.3371 115.404V128.578C54.3371 128.895 54.1257 129.105 53.8086 129.105C53.4914 129 53.28 128.789 53.28 128.473C53.28 128.578 53.28 128.473 53.28 128.473Z" fill="white"/>
<path d="M72.4143 128.473V113.086C72.4143 112.77 72.6257 112.559 72.9428 112.559C73.26 112.559 73.4714 112.77 73.4714 113.086V128.473C73.4714 128.789 73.26 129 72.9428 129C72.7314 129 72.4143 128.789 72.4143 128.473Z" fill="white"/>
<path d="M83.0914 128.368V113.191C83.0914 112.875 83.3029 112.664 83.5143 112.664H88.8C89.1172 112.664 89.3286 112.875 89.3286 113.191C89.3286 113.507 89.1172 113.718 88.8 113.718H84.0429V120.042H88.3772C88.6943 120.042 88.9057 120.252 88.9057 120.569C88.9057 120.885 88.6943 121.096 88.3772 121.096H84.0429V127.946H88.9057C89.2229 127.946 89.4343 128.157 89.4343 128.473C89.4343 128.789 89.2229 129 88.9057 129H83.62C83.4086 129 83.0914 128.895 83.0914 128.578C83.0914 128.578 83.0914 128.473 83.0914 128.368Z" fill="white"/>
<path d="M98.7371 112.664H101.909C103.917 112.664 105.609 114.35 105.609 116.353V117.828C105.609 119.831 103.917 121.517 101.909 121.517H99.2657V128.473C99.2657 128.789 99.0543 129 98.7371 129C98.42 129 98.2086 128.789 98.2086 128.473V113.191C98.2086 112.875 98.42 112.664 98.7371 112.664ZM101.909 113.718H99.2657V120.569H102.014C103.494 120.569 104.657 119.409 104.763 117.934C104.763 117.934 104.763 117.934 104.763 117.828V116.353C104.657 114.877 103.494 113.718 101.909 113.718C102.014 113.718 102.014 113.718 101.909 113.718Z" fill="white"/>
<path d="M114.171 128.368V113.086C114.171 112.77 114.383 112.559 114.7 112.559C115.017 112.559 115.229 112.77 115.229 113.086V127.841H120.091C120.409 127.841 120.62 128.051 120.62 128.368C120.62 128.684 120.409 128.895 120.091 128.895H114.806C114.489 128.895 114.171 128.684 114.171 128.368Z" fill="white"/>
<path d="M134.469 125.417C134.469 124.574 134.257 123.836 133.623 123.203L129.394 118.882C128.654 118.145 128.231 117.091 128.337 116.037C128.549 114.034 130.24 112.453 132.354 112.664C133.517 112.77 134.68 113.402 135.314 114.456C135.42 114.667 135.314 114.983 135.103 115.194C134.891 115.299 134.574 115.194 134.363 114.983C133.94 114.35 133.306 113.824 132.566 113.718C131.086 113.402 129.711 114.35 129.394 115.826C129.183 116.669 129.5 117.618 130.134 118.25L134.363 122.676C135.103 123.414 135.526 124.574 135.42 125.627C135.314 126.681 134.786 127.735 133.94 128.368C133.094 129 131.931 129.316 130.874 129.105C129.817 128.895 128.866 128.262 128.337 127.314C128.231 127.103 128.337 126.787 128.549 126.576C128.76 126.471 129.077 126.576 129.289 126.787C129.711 127.525 130.346 127.946 131.191 128.157C132.037 128.368 132.777 128.157 133.411 127.63C133.94 126.998 134.363 126.26 134.469 125.417Z" fill="white"/>
<path d="M59.7286 26.1373C60.0205 26.1373 60.2571 25.9013 60.2571 25.6103C60.2571 25.3193 60.0205 25.0833 59.7286 25.0833C59.4366 25.0833 59.2 25.3193 59.2 25.6103C59.2 25.9013 59.4366 26.1373 59.7286 26.1373Z" fill="white"/>
<path d="M80.0257 8.85293C80.3176 8.85293 80.5543 8.617 80.5543 8.32597C80.5543 8.03494 80.3176 7.79901 80.0257 7.79901C79.7338 7.79901 79.4971 8.03494 79.4971 8.32597C79.4971 8.617 79.7338 8.85293 80.0257 8.85293Z" fill="white"/>
<path d="M19.98 21.6054C20.2719 21.6054 20.5086 21.3695 20.5086 21.0784C20.5086 20.7874 20.2719 20.5515 19.98 20.5515C19.6881 20.5515 19.4514 20.7874 19.4514 21.0784C19.4514 21.3695 19.6881 21.6054 19.98 21.6054Z" fill="white"/>
<path d="M43.8714 22.1324C44.1634 22.1324 44.4 21.8964 44.4 21.6054C44.4 21.3144 44.1634 21.0784 43.8714 21.0784C43.5795 21.0784 43.3429 21.3144 43.3429 21.6054C43.3429 21.8964 43.5795 22.1324 43.8714 22.1324Z" fill="white"/>
<path d="M59.2 76.3039C59.4919 76.3039 59.7286 76.068 59.7286 75.777C59.7286 75.4859 59.4919 75.25 59.2 75.25C58.9081 75.25 58.6714 75.4859 58.6714 75.777C58.6714 76.068 58.9081 76.3039 59.2 76.3039Z" fill="white"/>
<path d="M2.00857 61.0221C2.3005 61.0221 2.53715 60.7861 2.53715 60.4951C2.53715 60.2041 2.3005 59.9681 2.00857 59.9681C1.71665 59.9681 1.48 60.2041 1.48 60.4951C1.48 60.7861 1.71665 61.0221 2.00857 61.0221Z" fill="white"/>
<path d="M79.0743 83.3652C79.3662 83.3652 79.6029 83.1293 79.6029 82.8382C79.6029 82.5472 79.3662 82.3113 79.0743 82.3113C78.7824 82.3113 78.5457 82.5472 78.5457 82.8382C78.5457 83.1293 78.7824 83.3652 79.0743 83.3652Z" fill="white"/>
<path d="M116.709 75.4608C117 75.4608 117.237 75.2249 117.237 74.9338C117.237 74.6428 117 74.4069 116.709 74.4069C116.417 74.4069 116.18 74.6428 116.18 74.9338C116.18 75.2249 116.417 75.4608 116.709 75.4608Z" fill="white"/>
<path d="M125.271 48.9019C125.563 48.9019 125.8 48.666 125.8 48.375C125.8 48.084 125.563 47.848 125.271 47.848C124.98 47.848 124.743 48.084 124.743 48.375C124.743 48.666 124.98 48.9019 125.271 48.9019Z" fill="white"/>
<path d="M28.5429 82.4166C28.8348 82.4166 29.0714 82.1807 29.0714 81.8897C29.0714 81.5987 28.8348 81.3627 28.5429 81.3627C28.2509 81.3627 28.0143 81.5987 28.0143 81.8897C28.0143 82.1807 28.2509 82.4166 28.5429 82.4166Z" fill="white"/>
<path d="M121.677 25.0833C121.969 25.0833 122.206 24.8474 122.206 24.5564C122.206 24.2653 121.969 24.0294 121.677 24.0294C121.385 24.0294 121.149 24.2653 121.149 24.5564C121.149 24.8474 121.385 25.0833 121.677 25.0833Z" fill="white"/>
<path d="M114.489 7.27206C114.78 7.27206 115.017 7.03613 115.017 6.7451C115.017 6.45407 114.78 6.21814 114.489 6.21814C114.197 6.21814 113.96 6.45407 113.96 6.7451C113.96 7.03613 114.197 7.27206 114.489 7.27206Z" fill="white"/>
<path d="M99.6886 20.1299L99.16 20.0245L104.551 0L106.771 13.4902L109.414 14.4387L133.94 9.48529L134.046 10.0123L109.309 15.0711L106.243 13.9118L104.446 2.6348L99.6886 20.1299Z" fill="white"/>
<path d="M112.586 85.4731L94.5086 58.5981L75.9029 41.8407L99.2657 19.9191L99.5829 20.2353L76.7486 41.8407L94.9314 58.2819L113.009 85.1569L112.586 85.4731Z" fill="white"/>
<path d="M41.1229 71.9828L32.56 42.3676L14.9057 59.7573L14.4829 59.3358L32.7714 41.3137L41.6514 71.8774L41.1229 71.9828Z" fill="white"/>
<path d="M112.163 18.9706L109.203 14.8603L109.626 14.5441L112.374 18.3382L133.94 9.48529L134.151 9.90686L112.163 18.9706Z" fill="white"/>
<path d="M116.074 38.9951L99.3714 20.3407H73.4714L97.68 6.42892L102.12 10.5392L101.803 10.8554L97.68 7.06128L75.48 19.8137H99.5829L99.6886 19.9191L116.497 38.6789L116.074 38.9951Z" fill="white"/>
<path d="M74.229 20.0698L70.5973 35.0247L71.111 35.1487L74.7427 20.1938L74.229 20.0698Z" fill="white"/>
<path d="M32.7714 42.0515L32.56 41.6299L45.2457 34.1471L59.7286 37.5196L70.9343 34.7794L76.5371 41.6299L76.1143 41.9461L70.7229 35.3064L59.7286 38.152L59.6229 38.0466L45.2457 34.674L32.7714 42.0515Z" fill="white"/>
<path d="M59.46 37.7099L55.6238 48.6539L56.1228 48.8277L59.959 37.8838L59.46 37.7099Z" fill="white"/>
<path d="M103.811 63.0245L94.4029 58.4926L101.063 31.1961L101.591 31.3015L95.0371 58.2819L104.023 62.6029L103.811 63.0245Z" fill="white"/>
<path d="M45.5629 94.5368L39.0086 92.4289V92.3235L31.82 73.3529L29.9171 60.0735L22.94 65.9755L21.2486 84.1029L16.28 79.6765V79.5711L14.3771 59.0196L22.7286 65.3431L30.4457 58.9142L32.4543 73.1422L39.5371 92.0074L44.9286 93.6936L41.3343 71.6667L50.2143 59.0196L80.0257 69.2426L93.7686 64.9216L93.98 65.4485L80.0257 69.7696H79.92L50.4257 59.652L41.8629 71.7721L45.5629 94.5368ZM16.8086 79.3603L20.8257 82.8382L22.4114 65.7647L14.9057 60.0735L16.8086 79.3603Z" fill="white"/>
<path d="M108.251 85.7892L108.146 85.6838L93.5571 65.2377L94.4029 58.3873H94.9314L94.0857 65.1323L108.569 85.2622L112.374 85.0515L103.6 62.9191L97.2571 47.1103L97.68 46.8995L104.129 62.7083L113.22 85.5784L108.251 85.7892Z" fill="white"/>
<path d="M15.6457 59.7574V59.2304H29.9171L31.3971 42.7892H31.9257L30.4457 59.7574H15.6457Z" fill="white"/>
<path d="M50.5314 59.4412L50.1086 59.2304L55.6057 49.5343L45.0343 34.5686L45.4571 34.2524L56.24 49.5343L50.5314 59.4412Z" fill="white"/>
<path d="M110.154 41.6299L100.957 31.3015L99.16 20.0245L106.349 13.5956L106.666 14.0172L100.217 19.8137L112.48 18.4436L116.497 39.1005L110.154 41.6299ZM101.591 31.0907L110.366 40.9975L115.969 38.6789L112.057 18.9706L99.7943 20.3407L101.591 31.0907Z" fill="white"/>
<path d="M79.7086 69.5588L76.1143 42.1569L55.9229 49.7451H55.8172L32.56 42.0515L14.9057 27.7181L7.4 47.7426L0.317146 34.7794L9.93715 39.4167L14.5886 26.875L32.7714 41.6299L55.9229 49.2181L76.5372 41.4191L80.3429 69.4534L79.7086 69.5588ZM1.58572 36.0441L7.29429 46.3725L9.72572 39.8382L1.58572 36.0441Z" fill="white"/>
<path d="M7.50571 47.2157L7.18857 46.8995L31.08 26.7696L32.9829 41.8407H32.4543L30.6571 27.8235L7.50571 47.2157Z" fill="white"/>
<path d="M31.82 26.9804H14.6943V27.5074H31.82V26.9804Z" fill="white"/>
<path d="M76.4347 41.6567L76.0806 42.0479L94.524 58.6395L94.8781 58.2482L76.4347 41.6567Z" fill="white"/>
<path d="M30.8686 28.2451C31.394 28.2451 31.82 27.8204 31.82 27.2966C31.82 26.7727 31.394 26.3481 30.8686 26.3481C30.3431 26.3481 29.9171 26.7727 29.9171 27.2966C29.9171 27.8204 30.3431 28.2451 30.8686 28.2451Z" fill="white"/>
<path d="M7.4 47.9534C7.92546 47.9534 8.35143 47.5288 8.35143 47.0049C8.35143 46.481 7.92546 46.0564 7.4 46.0564C6.87454 46.0564 6.44857 46.481 6.44857 47.0049C6.44857 47.5288 6.87454 47.9534 7.4 47.9534Z" fill="white"/>
<path d="M0.951429 36.3603C1.47689 36.3603 1.90286 35.9356 1.90286 35.4118C1.90286 34.8879 1.47689 34.4632 0.951429 34.4632C0.425969 34.4632 0 34.8879 0 35.4118C0 35.9356 0.425969 36.3603 0.951429 36.3603Z" fill="white"/>
<path d="M14.6943 60.4951C15.2197 60.4951 15.6457 60.0704 15.6457 59.5466C15.6457 59.0227 15.2197 58.598 14.6943 58.598C14.1688 58.598 13.7429 59.0227 13.7429 59.5466C13.7429 60.0704 14.1688 60.4951 14.6943 60.4951Z" fill="white"/>
<path d="M80.0257 70.4019C80.5512 70.4019 80.9771 69.9773 80.9771 69.4534C80.9771 68.9296 80.5512 68.5049 80.0257 68.5049C79.5002 68.5049 79.0743 68.9296 79.0743 69.4534C79.0743 69.9773 79.5002 70.4019 80.0257 70.4019Z" fill="white"/>
<path d="M50.5314 60.4951C51.0569 60.4951 51.4829 60.0704 51.4829 59.5466C51.4829 59.0227 51.0569 58.598 50.5314 58.598C50.006 58.598 49.58 59.0227 49.58 59.5466C49.58 60.0704 50.006 60.4951 50.5314 60.4951Z" fill="white"/>
<path d="M113.009 86.2108C113.534 86.2108 113.96 85.7861 113.96 85.2623C113.96 84.7384 113.534 84.3137 113.009 84.3137C112.483 84.3137 112.057 84.7384 112.057 85.2623C112.057 85.7861 112.483 86.2108 113.009 86.2108Z" fill="white"/>
<path d="M104.551 2.21322C105.077 2.21322 105.503 1.78855 105.503 1.26469C105.503 0.740833 105.077 0.316162 104.551 0.316162C104.026 0.316162 103.6 0.740833 103.6 1.26469C103.6 1.78855 104.026 2.21322 104.551 2.21322Z" fill="white"/>
<path d="M112.269 19.6029C112.794 19.6029 113.22 19.1783 113.22 18.6544C113.22 18.1305 112.794 17.7059 112.269 17.7059C111.743 17.7059 111.317 18.1305 111.317 18.6544C111.317 19.1783 111.743 19.6029 112.269 19.6029Z" fill="white"/>
<path d="M74.5286 21.0784C75.054 21.0784 75.48 20.6538 75.48 20.1299C75.48 19.606 75.054 19.1814 74.5286 19.1814C74.0031 19.1814 73.5771 19.606 73.5771 20.1299C73.5771 20.6538 74.0031 21.0784 74.5286 21.0784Z" fill="white"/>
<path d="M116.286 39.7328C116.811 39.7328 117.237 39.3082 117.237 38.7843C117.237 38.2605 116.811 37.8358 116.286 37.8358C115.76 37.8358 115.334 38.2605 115.334 38.7843C115.334 39.3082 115.76 39.7328 116.286 39.7328Z" fill="white"/>
<path d="M116.391 55.3309L97.5743 46.7941L97.4686 47.0049L97.3629 47.2157L97.9971 47.5319L115.44 55.4363L102.226 57.9657L101.697 58.0711L101.909 58.4927L102.543 58.598L113.22 60.3897L125.271 67.5564H125.377H132.46L116.391 55.3309ZM113.326 59.9681L103.6 58.1765L116.18 55.8579L124.214 66.3971L113.326 59.9681ZM117.554 56.9118L130.663 67.0294H125.377L117.554 56.9118Z" fill="white"/>
<path d="M116.286 56.5956C116.811 56.5956 117.237 56.1709 117.237 55.647C117.237 55.1232 116.811 54.6985 116.286 54.6985C115.76 54.6985 115.334 55.1232 115.334 55.647C115.334 56.1709 115.76 56.5956 116.286 56.5956Z" fill="white"/>
<path d="M41.0944 71.6704L39.0293 92.2239L39.5552 92.2765L41.6203 71.7229L41.0944 71.6704Z" fill="white"/>
<path d="M41.3599 71.6619L32.1445 72.9307L32.2168 73.4527L41.4322 72.1839L41.3599 71.6619Z" fill="white"/>
<path d="M41.1229 71.9828L31.9257 41.2083L55.9229 49.1128L76.0086 41.5245L99.2657 19.7083L112.163 18.2329L133.834 9.37991L134.257 10.2231L112.374 19.1814L99.6886 20.6569L76.5371 42.2623L55.9229 50.0613H55.7114L33.4057 42.6838L42.0743 71.6667L41.1229 71.9828Z" fill="white"/>
<path d="M14.9256 27.036L14.3273 27.7736L32.3299 42.2868L32.9281 41.5492L14.9256 27.036Z" fill="white"/>
<path d="M95.0371 59.3358L76.0086 42.2623L76.6429 41.5245L94.2971 57.4387L98.9486 20.1299L99.9 20.2353L95.0371 59.3358Z" fill="white"/>
<path d="M99.4771 21.9216C100.47 21.9216 101.274 21.1194 101.274 20.1299C101.274 19.1404 100.47 18.3382 99.4771 18.3382C98.4846 18.3382 97.68 19.1404 97.68 20.1299C97.68 21.1194 98.4846 21.9216 99.4771 21.9216Z" fill="white"/>
<path d="M76.3257 43.6323C77.3182 43.6323 78.1229 42.8302 78.1229 41.8407C78.1229 40.8512 77.3182 40.049 76.3257 40.049C75.3332 40.049 74.5286 40.8512 74.5286 41.8407C74.5286 42.8302 75.3332 43.6323 76.3257 43.6323Z" fill="white"/>
<path d="M55.9229 51.326C56.9154 51.326 57.72 50.5238 57.72 49.5343C57.72 48.5448 56.9154 47.7426 55.9229 47.7426C54.9303 47.7426 54.1257 48.5448 54.1257 49.5343C54.1257 50.5238 54.9303 51.326 55.9229 51.326Z" fill="white"/>
<path d="M41.3343 73.4583C42.3268 73.4583 43.1314 72.6562 43.1314 71.6667C43.1314 70.6772 42.3268 69.875 41.3343 69.875C40.3417 69.875 39.5371 70.6772 39.5371 71.6667C39.5371 72.6562 40.3417 73.4583 41.3343 73.4583Z" fill="white"/>
<path d="M32.6657 43.6323C33.6583 43.6323 34.4629 42.8302 34.4629 41.8407C34.4629 40.8512 33.6583 40.049 32.6657 40.049C31.6732 40.049 30.8686 40.8512 30.8686 41.8407C30.8686 42.8302 31.6732 43.6323 32.6657 43.6323Z" fill="white"/>
<path d="M14.6943 28.9828C15.6284 28.9828 16.3857 28.2279 16.3857 27.2966C16.3857 26.3653 15.6284 25.6103 14.6943 25.6103C13.7601 25.6103 13.0029 26.3653 13.0029 27.2966C13.0029 28.2279 13.7601 28.9828 14.6943 28.9828Z" fill="white"/>
<path d="M134.046 11.1716C134.863 11.1716 135.526 10.511 135.526 9.69607C135.526 8.88118 134.863 8.22058 134.046 8.22058C133.228 8.22058 132.566 8.88118 132.566 9.69607C132.566 10.511 133.228 11.1716 134.046 11.1716Z" fill="white"/>
<path d="M94.72 60.1789C95.7125 60.1789 96.5171 59.3768 96.5171 58.3872C96.5171 57.3977 95.7125 56.5956 94.72 56.5956C93.7275 56.5956 92.9229 57.3977 92.9229 58.3872C92.9229 59.3768 93.7275 60.1789 94.72 60.1789Z" fill="white"/>
</g>
<defs>
<clipPath id="clip0">
<rect width="148" height="129" fill="white"/>
</clipPath>
</defs>
</svg>
